<svg width="224" height="52" xmlns="http://www.w3.org/2000/svg"><g fill="none" fill-rule="evenodd"><g fill="#1997DE"><path d="M25.312 30.224c-6.137-4.49-10.74-12.155-7.013-18.287 1.643-2.08 3.726-3.723 6.136-5.147.22-.11.548-.219.768-.328h-.11C36.49.11 53.148.33 53.148.33S23.888-3.065 8.107 11.937c-3.069 2.628-5.48 6.023-6.795 9.855C.216 24.858-.222 28.362.107 31.867c.767 7.884 5.37 14.454 11.835 18.068a11.312 11.312 0 0 0 7.562 1.752c6.575-.657 11.288-6.46 10.74-13.031-.439-3.504-2.302-6.46-4.932-8.432z"/><path d="M35.942 10.294c-.11 0-11.945 4.928-4.602 12.922 6.246 6.68 9.315 9.527 7.452 18.287-.767 3.614-2.96 6.79-6.576 9.417 9.096-3.832 15.014-13.25 14.028-23.652-.658-7.118-4.603-13.25-10.302-16.974z"/></g><g fill="#415966"><path d="M72.427 21.23a5.269 5.269 0 0 0-2.18-1.524c-.982-.326-1.855-.544-2.618-.544-.436 0-.982.109-1.527.218-.545.109-.982.326-1.418.544-.436.218-.872.544-1.09.98-.328.435-.437.87-.437 1.415 0 .87.327 1.633.982 2.068.654.436 1.527.871 2.617 1.198 1.09.326 2.181.653 3.381.98 1.2.326 2.29.87 3.381 1.415 1.09.653 1.854 1.415 2.617 2.503.655 1.089.982 2.504.982 4.246 0 1.633-.327 3.157-.982 4.354-.654 1.307-1.526 2.286-2.508 3.157-1.09.871-2.29 1.415-3.708 1.85-1.418.436-2.945.545-4.471.545-1.964 0-3.818-.327-5.453-.87-1.636-.545-3.272-1.525-4.69-2.94l4.799-5.225c.654.87 1.526 1.633 2.617 2.068 1.09.544 2.072.762 3.272.762.545 0 1.09-.109 1.636-.218a6.314 6.314 0 0 0 1.527-.544c.436-.218.763-.544 1.09-.98.218-.435.436-.87.436-1.415 0-.87-.327-1.633-1.09-2.177-.655-.544-1.527-.98-2.618-1.306-1.09-.327-2.18-.762-3.38-1.089-1.2-.326-2.4-.87-3.381-1.524-1.091-.653-1.963-1.415-2.618-2.504-.654-.98-1.09-2.395-1.09-4.028 0-1.632.327-3.048.981-4.245.654-1.197 1.527-2.286 2.618-3.048 1.09-.871 2.29-1.415 3.708-1.85a14.6 14.6 0 0 1 4.362-.654c1.745 0 3.38.218 5.017.762 1.636.436 3.054 1.306 4.362 2.395l-5.126 5.225zM93.149 41.478c-.763 1.089-1.745 1.96-2.945 2.395-1.2.435-2.399.762-3.708.762-.981 0-1.854-.109-2.835-.435a6.224 6.224 0 0 1-2.4-1.198 7.132 7.132 0 0 1-1.636-1.96c-.436-.761-.545-1.741-.545-2.83 0-1.197.218-2.177.655-3.048.436-.87 1.09-1.524 1.744-2.068a9.81 9.81 0 0 1 2.618-1.306 13.832 13.832 0 0 1 3.054-.653c1.09-.11 2.072-.218 3.162-.218h2.836c0-1.089-.436-2.069-1.2-2.722-.763-.653-1.745-.98-2.835-.98-1.09 0-2.072.218-2.836.654-.872.435-1.636 1.088-2.29 1.85l-3.381-3.483a12.424 12.424 0 0 1 4.144-2.504c1.636-.544 3.272-.87 5.017-.87 1.854 0 3.381.217 4.69.652 1.2.436 2.18 1.198 2.944 2.069.764.87 1.2 2.068 1.527 3.374.327 1.307.436 2.83.436 4.572v10.56h-5.889v-2.613h-.327zm-1.527-6.531c-.436 0-1.09 0-1.854.108-.763 0-1.418.218-2.072.327-.654.218-1.2.544-1.745.87-.436.436-.654.98-.654 1.634 0 .762.327 1.306.981 1.742.655.326 1.309.544 2.072.544.655 0 1.2-.109 1.854-.218.546-.218 1.09-.435 1.527-.762.436-.326.873-.762 1.09-1.197.219-.436.437-1.089.437-1.742v-1.415h-1.636v.109zM102.092 11.76h6.435v32.33h-6.435zM131.756 40.498c-.981 1.307-2.29 2.286-3.926 3.048-1.527.762-3.162 1.09-4.907 1.09-1.636 0-3.054-.219-4.472-.763-1.418-.544-2.617-1.197-3.708-2.177-1.09-.98-1.854-2.068-2.508-3.484a11.63 11.63 0 0 1-.873-4.463c0-1.633.327-3.157.873-4.463.545-1.306 1.417-2.504 2.508-3.484 1.09-.98 2.29-1.741 3.708-2.177 1.418-.544 2.945-.762 4.472-.762 1.526 0 2.835.218 4.035.762 1.2.545 2.29 1.198 3.054 2.177a9.078 9.078 0 0 1 1.963 3.484c.436 1.306.654 2.83.654 4.463v1.96h-14.941c.218 1.197.763 2.177 1.636 2.939.872.762 1.963 1.088 3.162 1.088 1.09 0 1.963-.217 2.727-.653.763-.435 1.309-1.088 1.854-1.85l4.69 3.265zm-5.453-9.144c0-1.088-.327-1.96-1.09-2.83-.764-.762-1.745-1.198-2.836-1.198-.763 0-1.308.11-1.854.327-.545.218-.981.544-1.418.87-.436.327-.654.763-.872 1.198-.218.436-.327.98-.327 1.524h8.397v.11zM147.352 29.395c-.981-1.198-2.181-1.742-3.708-1.742-.545 0-1.09.109-1.636.435-.545.218-.763.654-.763 1.307 0 .544.218.87.763 1.088.545.218 1.2.436 1.963.654.764.217 1.636.435 2.618.544.981.218 1.745.544 2.617.98.764.435 1.527 1.088 1.963 1.85.546.762.764 1.85.764 3.157 0 1.306-.327 2.395-.873 3.266-.545.87-1.309 1.524-2.29 2.068-.873.544-1.963.871-3.054 1.089-1.09.217-2.29.326-3.38.326a15.14 15.14 0 0 1-4.363-.653c-1.527-.435-2.727-1.197-3.817-2.177l3.926-4.354c.545.762 1.309 1.306 1.963 1.741.764.436 1.527.545 2.508.545.764 0 1.418-.11 1.964-.327.545-.218.872-.653.872-1.197 0-.545-.218-.98-.763-1.198-.546-.218-1.2-.544-1.963-.653-.764-.218-1.636-.435-2.618-.544-.981-.218-1.745-.545-2.617-.98-.764-.435-1.527-.98-1.963-1.85-.546-.763-.764-1.851-.764-3.158 0-1.197.218-2.286.764-3.156.545-.871 1.2-1.633 1.963-2.178.763-.544 1.745-.98 2.835-1.306 1.09-.218 2.072-.435 3.163-.435 1.418 0 2.726.217 4.144.544 1.418.435 2.618 1.089 3.6 2.177l-3.818 4.137zM155.859 13.828h3.599v26.888h13.85v3.375h-17.45zM174.4 34.076c0-1.524.217-2.94.763-4.246a10.088 10.088 0 0 1 2.18-3.266c.982-.87 2.073-1.632 3.382-2.177 1.308-.544 2.726-.762 4.253-.762 1.527 0 2.945.218 4.253.762 1.31.545 2.4 1.198 3.381 2.177.982.98 1.636 2.069 2.182 3.266.545 1.307.763 2.722.763 4.246 0 1.524-.218 2.939-.763 4.245a10.088 10.088 0 0 1-2.182 3.266c-.981.98-2.072 1.633-3.38 2.177-1.31.544-2.727.762-4.254.762-1.527 0-2.945-.218-4.253-.762-1.309-.544-2.4-1.197-3.381-2.177-.982-.87-1.636-2.068-2.181-3.266-.546-1.197-.764-2.721-.764-4.245zm3.598 0c0 1.088.218 2.068.546 2.939.327.87.763 1.633 1.417 2.395a8.733 8.733 0 0 0 2.29 1.633c.873.435 1.855.544 2.945.544a8.34 8.34 0 0 0 2.945-.544c.872-.436 1.636-.871 2.29-1.633.655-.653 1.09-1.415 1.418-2.395.327-.871.545-1.85.545-2.94a8.298 8.298 0 0 0-.545-2.938 7.722 7.722 0 0 0-1.418-2.395 8.733 8.733 0 0 0-2.29-1.633c-.873-.436-1.854-.545-2.945-.545a8.34 8.34 0 0 0-2.944.545c-.873.435-1.636.87-2.29 1.633-.655.653-1.091 1.415-1.418 2.395-.437.87-.546 1.85-.546 2.939zM201.664 26.891h-4.362v-2.83h4.362v-4.464c0-1.197.11-2.394.328-3.374.218-.98.654-1.85 1.2-2.613.545-.762 1.308-1.306 2.18-1.742.873-.435 2.073-.653 3.381-.653.437 0 .873 0 1.418.11.436.108.873.217 1.2.435l-.436 2.939c-.764-.327-1.527-.436-2.29-.436-.873 0-1.528.11-1.964.436-.436.326-.872.762-1.09 1.197-.219.545-.437 1.198-.437 1.85 0 .763-.109 1.525-.109 2.396v3.81h4.908v2.83h-4.908v17.2h-3.38V26.89z"/><path d="M223.258 26.891h-5.889v11.865c0 .545.11 1.09.327 1.416.218.435.546.762.873.98.436.217.981.326 1.745.326.436 0 .981-.109 1.527-.218.545-.108.981-.326 1.417-.544l.11 3.048c-.546.218-1.2.436-1.855.544-.654.11-1.308.218-1.963.218-1.2 0-2.18-.109-2.835-.435-.764-.327-1.309-.762-1.636-1.307-.436-.544-.654-1.306-.764-2.068-.109-.87-.218-1.742-.218-2.83V26.89h-4.362v-2.83h4.362V18.4h3.381v5.66h5.89v2.831h-.11z"/></g></g></svg>